<svg xmlns="http://www.w3.org/2000/svg">
<symbol id="solid-tag-circle-plus" viewBox="0 0 640 512">
<path d="M0 80L0 229.5c0 17 6.7 33.3 18.7 45.3c58.7 58.7 117.3 117.3 176 176c25 25 65.5 25 90.5 0c13.3-13.3 26.7-26.7 40-40c-3.4-13.7-5.2-28-5.2-42.8c0-65 35.2-121.8 87.6-152.3c-55-55-110-110-164.9-164.9c-12-12-28.3-18.7-45.3-18.7c-49.8 0-99.6 0-149.4 0C21.5 32 0 53.5 0 80zm112 32c17.7 0 32 14.3 32 32s-14.3 32-32 32s-32-14.3-32-32s14.3-32 32-32zM640 368c0 79.5-64.5 144-144 144s-144-64.5-144-144s64.5-144 144-144s144 64.5 144 144zM480 304l0 48c-16 0-32 0-48 0c-8.8 0-16 7.2-16 16s7.2 16 16 16c16 0 32 0 48 0l0 48c0 8.8 7.2 16 16 16s16-7.2 16-16c0-16 0-32 0-48c16 0 32 0 48 0c8.8 0 16-7.2 16-16s-7.2-16-16-16c-16 0-32 0-48 0c0-16 0-32 0-48c0-8.8-7.2-16-16-16s-16 7.2-16 16z"/>
</symbol>
<symbol id="solid-envelope-clock" viewBox="0 0 640 512">
<path d="M48 64C21.5 64 0 85.5 0 112c0 15.1 7.1 29.3 19.2 38.4c72.5 54.4 145.1 108.8 217.6 163.2c11.4 8.5 27 8.5 38.4 0c38-28.5 75.9-56.9 113.9-85.4c1-.7 1.9-1.5 2.9-2.2c33.6-25.2 67.2-50.4 100.8-75.6c12.1-9.1 19.2-23.3 19.2-38.4c0-26.5-21.5-48-48-48c-138.7 0-277.3 0-416 0zM0 176L0 384c0 35.3 28.7 64 64 64c91.8 0 183.5 0 275.2 0c-12.3-24-19.2-51.2-19.2-80c0-19 3-37.3 8.6-54.4c-11.4 8.5-22.8 17.1-34.2 25.6c-22.8 17.1-54 17.1-76.8 0C145.1 284.8 72.5 230.4 0 176zm512 0l-21.4 16.1c1.8-.1 3.6-.1 5.4-.1c5.4 0 10.7 .2 16 .7c0-5.6 0-11.1 0-16.7zM352 368c0-79.5 64.5-144 144-144s144 64.5 144 144s-64.5 144-144 144s-144-64.5-144-144zm160-64c0-8.8-7.2-16-16-16s-16 7.2-16 16c0 21.3 0 42.7 0 64c0 8.8 7.2 16 16 16c16 0 32 0 48 0c8.8 0 16-7.2 16-16s-7.2-16-16-16c-10.7 0-21.3 0-32 0c0-16 0-32 0-48z"/>
</symbol>
<symbol id="light-tag-circle-plus" viewBox="0 0 640 512">
<path d="M88 144c0-13.3 10.8-24 24-24c13.3 0 24 10.7 24 24s-10.7 24-24 24c-13.3 0-24-10.7-24-24zM0 80C0 53.5 21.5 32 48 32c49.8 0 99.7 0 149.5 0c17 0 33.2 6.7 45.2 18.8c55 55 110 110 165 165c-9.4 5.5-18.3 11.8-26.5 18.8C327.5 180.8 273.8 127.1 220.1 73.4c-6-6-15-9.4-22.6-9.4C147.7 64 97.8 64 48 64c-8.8 0-16 7.2-16 16c0 49.8 0 99.7 0 149.5c0 7.6 3.4 16.6 9.4 22.6c-7.5 7.5-15.1 15.1-22.6 22.6C6.7 262.7 0 246.5 0 229.5C0 179.7 0 129.8 0 80zM285.3 450.7c-25 25-65.6 25-90.6 0C136 392 77.4 333.4 18.8 274.7c15.2-15.1 7.7-7.7 22.6-22.6c58.7 58.7 117.4 117.3 176 176c12.5 12.5 32.7 12.5 45.2 0c19.1-19.1 38.3-38.3 57.4-57.4c.2 13.8 2 27.2 5.2 40.1c-13.3 13.3-26.6 26.6-39.9 39.9zM496 288c8.8 0 16 7.2 16 16c0 16 0 32 0 48c16 0 32 0 48 0c8.8 0 16 7.2 16 16s-7.2 16-16 16c-16 0-32 0-48 0c0 16 0 32 0 48c0 8.8-7.2 16-16 16s-16-7.2-16-16c0-16 0-32 0-48c-16 0-32 0-48 0c-8.8 0-16-7.2-16-16s7.2-16 16-16c16 0 32 0 48 0c0-16 0-32 0-48c0-8.8 7.2-16 16-16zM352 368c0-79.5 64.5-144 144-144s144 64.5 144 144s-64.5 144-144 144s-144-64.5-144-144zM496 480c61.9 0 112-50.1 112-112s-50.1-112-112-112s-112 50.1-112 112s50.1 112 112 112z"/>
</symbol>
<symbol id="solid-envelope-circle-exclamation" viewBox="0 0 640 512">
<path d="M48 64C21.5 64 0 85.5 0 112c0 15.1 7.1 29.3 19.2 38.4c72.5 54.4 145.1 108.8 217.6 163.2c11.4 8.5 27 8.5 38.4 0c38-28.5 75.9-56.9 113.9-85.4c1-.7 1.9-1.5 2.9-2.2c33.6-25.2 67.2-50.4 100.8-75.6c12.1-9.1 19.2-23.3 19.2-38.4c0-26.5-21.5-48-48-48c-138.7 0-277.3 0-416 0zM0 176L0 384c0 35.3 28.7 64 64 64c91.8 0 183.5 0 275.2 0c-12.3-24-19.2-51.2-19.2-80c0-19 3-37.3 8.6-54.4c-11.4 8.5-22.8 17.1-34.2 25.6c-22.8 17.1-54 17.1-76.8 0C145.1 284.8 72.5 230.4 0 176zm512 0l-21.4 16.1c1.8-.1 3.6-.1 5.4-.1c5.4 0 10.7 .2 16 .7c0-5.6 0-11.1 0-16.7zM640 368c0 79.5-64.5 144-144 144s-144-64.5-144-144s64.5-144 144-144s144 64.5 144 144zM496 416c-13.3 0-24 10.7-24 24s10.7 24 24 24s24-10.7 24-24s-10.7-24-24-24zm16-128c0-8.8-7.2-16-16-16s-16 7.2-16 16c0 26.7 0 53.3 0 80c0 8.8 7.2 16 16 16s16-7.2 16-16c0-26.7 0-53.3 0-80z"/>
</symbol>
<symbol id="sharp-regular-envelope-circle-exclamation" viewBox="0 0 640 512">
<path d="M48 150.8l208 143c69.3-47.7 138.7-95.3 208-143c0-12.9 0-25.9 0-38.8c-138.7 0-277.3 0-416 0c0 12.9 0 25.9 0 38.8zM256 352L48 209c0 63.7 0 127.3 0 191c91.7 0 183.3 0 274.9 0c3.1 17 8.7 33.1 16.3 48c-97.1 0-194.2 0-291.2 0c-16 0-32 0-48 0c0-16 0-32 0-48c0-74.7 0-149.3 0-224c0-21.3 0-42.7 0-64C0 96 0 80 0 64c16 0 32 0 48 0c138.7 0 277.3 0 416 0c16 0 32 0 48 0c0 16 0 32 0 48c0 21.3 0 42.7 0 64c0 5.6 0 11.1 0 16.7c-5.3-.5-10.6-.7-16-.7c-72.4 0-134.5 43.7-161.6 106.1c-26.1 18-52.3 36-78.4 53.9zm384 16c0 79.5-64.5 144-144 144s-144-64.5-144-144s64.5-144 144-144s144 64.5 144 144zM480 416l0 32c10.7 0 21.3 0 32 0c0-10.7 0-21.3 0-32c-10.7 0-21.3 0-32 0zm32-144l-32 0c0 37.3 0 74.7 0 112c10.7 0 21.3 0 32 0c0-37.3 0-74.7 0-112z"/>
</symbol>
</svg>