<svg xmlns="http://www.w3.org/2000/svg" viewBox="0 0 640 512"><path d="M48 150.8l208 143c69.3-47.7 138.7-95.3 208-143c0-12.9 0-25.9 0-38.8c-138.7 0-277.3 0-416 0c0 12.9 0 25.9 0 38.8zM256 352L48 209c0 63.7 0 127.3 0 191c91.7 0 183.3 0 274.9 0c3.1 17 8.7 33.1 16.3 48c-97.1 0-194.2 0-291.2 0c-16 0-32 0-48 0c0-16 0-32 0-48c0-74.7 0-149.3 0-224c0-21.3 0-42.7 0-64C0 96 0 80 0 64c16 0 32 0 48 0c138.7 0 277.3 0 416 0c16 0 32 0 48 0c0 16 0 32 0 48c0 21.3 0 42.7 0 64c0 5.6 0 11.1 0 16.7c-5.3-.5-10.6-.7-16-.7c-72.4 0-134.5 43.7-161.6 106.1c-26.1 18-52.3 36-78.4 53.9zm384 16c0 79.5-64.5 144-144 144s-144-64.5-144-144s64.5-144 144-144s144 64.5 144 144zM480 416l0 32c10.7 0 21.3 0 32 0c0-10.7 0-21.3 0-32c-10.7 0-21.3 0-32 0zm32-144l-32 0c0 37.3 0 74.7 0 112c10.7 0 21.3 0 32 0c0-37.3 0-74.7 0-112z"/></svg>