<svg xmlns="http://www.w3.org/2000/svg" viewBox="0 0 640 512"><path d="M48 64C21.5 64 0 85.5 0 112c0 15.1 7.1 29.3 19.2 38.4c72.5 54.4 145.1 108.8 217.6 163.2c11.4 8.5 27 8.5 38.4 0c38-28.5 75.9-56.9 113.9-85.4c1-.7 1.9-1.5 2.9-2.2c33.6-25.2 67.2-50.4 100.8-75.6c12.1-9.1 19.2-23.3 19.2-38.4c0-26.5-21.5-48-48-48c-138.7 0-277.3 0-416 0zM0 176L0 384c0 35.3 28.7 64 64 64c91.8 0 183.5 0 275.2 0c-12.3-24-19.2-51.2-19.2-80c0-19 3-37.3 8.6-54.4c-11.4 8.5-22.8 17.1-34.2 25.6c-22.8 17.1-54 17.1-76.8 0C145.1 284.8 72.5 230.4 0 176zm512 0l-21.4 16.1c1.8-.1 3.6-.1 5.4-.1c5.4 0 10.7 .2 16 .7c0-5.6 0-11.1 0-16.7zM640 368c0 79.5-64.5 144-144 144s-144-64.5-144-144s64.5-144 144-144s144 64.5 144 144zM496 416c-13.3 0-24 10.7-24 24s10.7 24 24 24s24-10.7 24-24s-10.7-24-24-24zm16-128c0-8.8-7.2-16-16-16s-16 7.2-16 16c0 26.7 0 53.3 0 80c0 8.8 7.2 16 16 16s16-7.2 16-16c0-26.7 0-53.3 0-80z"/></svg>