<svg xmlns="http://www.w3.org/2000/svg" viewBox="0 0 640 512"><path d="M0 80L0 229.5c0 17 6.7 33.3 18.7 45.3c58.7 58.7 117.3 117.3 176 176c25 25 65.5 25 90.5 0c13.3-13.3 26.7-26.7 40-40c-3.4-13.7-5.2-28-5.2-42.8c0-65 35.2-121.8 87.6-152.3c-55-55-110-110-164.9-164.9c-12-12-28.3-18.7-45.3-18.7c-49.8 0-99.6 0-149.4 0C21.5 32 0 53.5 0 80zm112 32c17.7 0 32 14.3 32 32s-14.3 32-32 32s-32-14.3-32-32s14.3-32 32-32zM640 368c0 79.5-64.5 144-144 144s-144-64.5-144-144s64.5-144 144-144s144 64.5 144 144zM480 304l0 48c-16 0-32 0-48 0c-8.8 0-16 7.2-16 16s7.2 16 16 16c16 0 32 0 48 0l0 48c0 8.8 7.2 16 16 16s16-7.2 16-16c0-16 0-32 0-48c16 0 32 0 48 0c8.8 0 16-7.2 16-16s-7.2-16-16-16c-16 0-32 0-48 0c0-16 0-32 0-48c0-8.8-7.2-16-16-16s-16 7.2-16 16z"/></svg>